<svg width="962" height="217" viewBox="0 0 962 217" fill="none" xmlns="http://www.w3.org/2000/svg">
<path d="M949.4 217H12.9004C6.30039 217 0.900391 211.6 0.900391 205V197.2C0.900391 190.6 6.30039 185.2 12.9004 185.2H949.3C955.9 185.2 961.3 190.6 961.3 197.2V205C961.4 211.6 956 217 949.4 217Z" fill="#00A66F"/>
<path d="M50.787 93.7944H55.3816C57.296 93.7944 58.9096 93.5209 60.2223 92.9739C61.5898 92.3723 62.8205 91.4151 63.9144 90.1023L98.2099 48.2586C99.5773 46.4536 101.054 45.2502 102.64 44.6485C104.281 43.9922 106.168 43.664 108.302 43.664H126.598L84.5901 93.3021C83.3868 94.8337 82.1834 96.1191 80.9801 97.1583C79.7767 98.1429 78.5187 98.936 77.206 99.5377C78.7922 100.194 80.187 101.097 81.3903 102.245C82.6484 103.339 83.7423 104.843 84.6722 106.758L114.865 162.303H96.0767C94.8186 162.303 93.752 162.221 92.8768 162.057C92.0017 161.838 91.2359 161.565 90.5795 161.237C89.9779 160.854 89.4582 160.416 89.0207 159.924C88.6378 159.377 88.2822 158.775 87.954 158.119L63.5042 113.896C62.7931 112.419 61.8085 111.38 60.5505 110.778C59.3472 110.176 57.5695 109.876 55.2175 109.876H48.8178L42.4182 162.303H21.2502L35.6904 43.5819H57.0225L50.787 93.7944ZM151.871 147.945C155.262 147.945 158.325 146.988 161.06 145.074C163.795 143.104 166.12 140.506 168.034 137.279C169.948 133.997 171.425 130.196 172.465 125.875C173.504 121.553 174.023 117.014 174.023 112.255C174.023 105.418 172.875 100.413 170.577 97.2404C168.28 94.0132 164.78 92.3996 160.076 92.3996C156.684 92.3996 153.594 93.3568 150.804 95.2713C148.069 97.1857 145.745 99.7838 143.83 103.066C141.916 106.293 140.439 110.067 139.4 114.388C138.361 118.709 137.841 123.276 137.841 128.09C137.841 134.927 138.99 139.959 141.287 143.186C143.584 146.359 147.112 147.945 151.871 147.945ZM149.984 163.534C145.334 163.534 141.041 162.768 137.102 161.237C133.164 159.65 129.746 157.353 126.847 154.345C123.948 151.336 121.678 147.644 120.037 143.268C118.396 138.893 117.575 133.888 117.575 128.254C117.575 120.979 118.751 114.197 121.103 107.906C123.455 101.616 126.628 96.1738 130.621 91.5792C134.668 86.9846 139.372 83.3745 144.733 80.749C150.093 78.1235 155.809 76.8108 161.881 76.8108C166.53 76.8108 170.824 77.6039 174.762 79.1901C178.755 80.7217 182.173 82.9916 185.018 86C187.917 89.0084 190.187 92.7005 191.828 97.0763C193.468 101.452 194.289 106.457 194.289 112.091C194.289 119.311 193.113 126.066 190.761 132.356C188.409 138.592 185.209 144.034 181.161 148.684C177.169 153.278 172.492 156.916 167.132 159.596C161.771 162.221 156.055 163.534 149.984 163.534ZM208.675 145.156C208.675 144.773 208.675 144.335 208.675 143.843C208.675 143.296 208.703 142.53 208.757 141.546C208.867 140.506 209.003 139.166 209.168 137.525C209.386 135.83 209.66 133.669 209.988 131.044L214.665 93.3021H206.706C205.722 93.3021 204.901 92.9466 204.245 92.2355C203.643 91.5245 203.452 90.4579 203.67 89.0357L204.573 80.9952L217.372 78.7799L224.1 55.8069C224.483 54.7129 225.057 53.8651 225.823 53.2634C226.589 52.6617 227.546 52.3609 228.695 52.3609H239.525L236.243 78.8619H256.59L254.867 93.3021H234.438L229.925 129.977C229.652 132.22 229.433 133.997 229.269 135.31C229.105 136.623 228.968 137.662 228.859 138.428C228.804 139.139 228.777 139.658 228.777 139.987C228.777 140.26 228.777 140.452 228.777 140.561C228.777 142.639 229.269 144.28 230.254 145.484C231.293 146.687 232.742 147.289 234.602 147.289C235.751 147.289 236.735 147.152 237.556 146.879C238.376 146.55 239.087 146.222 239.689 145.894C240.291 145.566 240.838 145.265 241.33 144.991C241.822 144.663 242.287 144.499 242.725 144.499C243.326 144.499 243.791 144.663 244.119 144.991C244.448 145.265 244.748 145.703 245.022 146.304L249.37 156.15C246.362 158.611 243.025 160.471 239.361 161.729C235.751 162.987 232.059 163.616 228.284 163.616C222.322 163.616 217.591 162.002 214.09 158.775C210.644 155.548 208.839 151.008 208.675 145.156ZM317.75 93.9585C317.148 94.8337 316.574 95.4627 316.027 95.8456C315.48 96.1738 314.769 96.3379 313.894 96.3379C312.909 96.3379 311.924 96.0644 310.94 95.5174C309.955 94.9704 308.807 94.3687 307.494 93.7124C306.236 93.0013 304.759 92.3723 303.063 91.8253C301.422 91.2783 299.453 91.0048 297.156 91.0048C292.835 91.0048 289.526 91.9894 287.228 93.9585C284.931 95.8729 283.782 98.2796 283.782 101.179C283.782 103.421 284.576 105.226 286.162 106.594C287.803 107.961 289.854 109.164 292.315 110.204C294.777 111.243 297.402 112.31 300.192 113.404C303.036 114.443 305.689 115.783 308.15 117.424C310.612 119.01 312.636 121.089 314.222 123.659C315.863 126.175 316.683 129.43 316.683 133.423C316.683 137.471 315.863 141.327 314.222 144.991C312.636 148.656 310.338 151.883 307.33 154.673C304.321 157.408 300.684 159.596 296.418 161.237C292.206 162.823 287.447 163.616 282.142 163.616C279.516 163.616 276.945 163.343 274.429 162.796C271.913 162.303 269.561 161.592 267.373 160.662C265.24 159.732 263.271 158.639 261.466 157.38C259.661 156.122 258.129 154.755 256.871 153.278L261.876 145.566C262.478 144.636 263.189 143.925 264.009 143.433C264.83 142.94 265.842 142.694 267.045 142.694C268.194 142.694 269.233 143.05 270.163 143.761C271.093 144.472 272.159 145.265 273.363 146.14C274.621 146.961 276.125 147.726 277.875 148.437C279.68 149.148 281.977 149.504 284.767 149.504C287.01 149.504 288.979 149.203 290.674 148.602C292.425 148 293.902 147.179 295.105 146.14C296.308 145.101 297.211 143.898 297.812 142.53C298.414 141.163 298.715 139.713 298.715 138.182C298.715 136.322 298.25 134.79 297.32 133.587C296.39 132.329 295.132 131.262 293.546 130.387C292.014 129.457 290.264 128.664 288.295 128.008C286.326 127.297 284.302 126.558 282.224 125.793C280.2 125.027 278.203 124.152 276.234 123.167C274.32 122.183 272.569 120.952 270.983 119.475C269.452 117.943 268.221 116.111 267.291 113.978C266.361 111.79 265.896 109.137 265.896 106.019C265.896 102.3 266.607 98.6899 268.03 95.1892C269.452 91.6339 271.53 88.5161 274.265 85.8359C277 83.101 280.364 80.9131 284.357 79.2722C288.404 77.6312 293.026 76.8108 298.223 76.8108C303.583 76.8108 308.342 77.7406 312.499 79.6004C316.656 81.4054 320.129 83.73 322.919 86.5743L317.75 93.9585ZM383.924 91.4151C383.158 91.3604 382.42 91.333 381.709 91.333C381.053 91.2783 380.396 91.251 379.74 91.251C375.2 91.251 370.988 92.2902 367.105 94.3687C363.221 96.4473 359.857 99.2642 357.013 102.82C354.223 106.32 352.008 110.423 350.367 115.127C348.781 119.776 347.988 124.699 347.988 129.895C347.988 135.802 348.918 140.123 350.777 142.858C352.637 145.593 355.18 146.961 358.408 146.961C360.65 146.961 362.838 146.195 364.971 144.663C367.159 143.077 369.21 140.944 371.125 138.264C373.094 135.529 374.872 132.329 376.458 128.664C378.099 124.999 379.521 121.061 380.724 116.849L383.924 91.4151ZM378.345 144.745C374.626 150.489 370.414 155.056 365.71 158.447C361.06 161.838 355.974 163.534 350.449 163.534C347.277 163.534 344.296 162.905 341.506 161.647C338.771 160.389 336.364 158.529 334.286 156.068C332.262 153.552 330.649 150.434 329.445 146.714C328.297 142.94 327.722 138.537 327.722 133.505C327.722 128.473 328.351 123.577 329.609 118.819C330.867 114.06 332.645 109.602 334.942 105.445C337.294 101.233 340.111 97.3771 343.393 93.8765C346.675 90.3758 350.34 87.3674 354.387 84.8513C358.49 82.3352 362.893 80.3935 367.597 79.026C372.356 77.6039 377.36 76.8928 382.611 76.8928C386.386 76.8928 390.16 77.1663 393.934 77.7133C397.763 78.2603 401.482 79.2448 405.092 80.667L395 162.303H384.252C381.682 162.303 379.931 161.674 379.001 160.416C378.126 159.103 377.689 157.49 377.689 155.575L378.345 144.745ZM440.209 98.307C442.343 94.1499 444.613 90.5946 447.019 87.6409C449.481 84.6326 452.024 82.3079 454.65 80.667C457.275 78.9713 459.983 77.9868 462.772 77.7133C465.562 77.3851 468.351 77.8227 471.141 79.026L467.449 98.389C460.776 95.5994 454.923 96.2832 449.891 100.44C444.913 104.597 440.92 112.775 437.912 124.972L433.399 162.303H413.544L423.718 78.0415H434.056C436.189 78.0415 437.83 78.5611 438.979 79.6004C440.182 80.6396 440.784 82.3079 440.784 84.6052L440.209 98.307Z" fill="white"/>
<path d="M599.374 95.0256C599.374 104.871 597.788 113.924 594.616 122.183C591.443 130.442 587.013 137.553 581.324 143.515C575.69 149.422 568.99 154.044 561.223 157.381C553.456 160.663 544.977 162.304 535.788 162.304H494.027L508.631 43.6645H550.475C558.023 43.6645 564.805 44.9499 570.822 47.5206C576.894 50.0914 582.035 53.6468 586.247 58.1867C590.459 62.7266 593.686 68.1417 595.928 74.4319C598.226 80.7222 599.374 87.5867 599.374 95.0256ZM577.55 95.5179C577.55 90.2122 576.894 85.3988 575.581 81.0777C574.268 76.7566 572.354 73.0918 569.838 70.0834C567.376 67.0204 564.34 64.6684 560.73 63.0274C557.12 61.3865 552.991 60.5661 548.341 60.5661H527.994L517.492 145.32H537.921C543.884 145.32 549.299 144.171 554.167 141.874C559.035 139.577 563.192 136.295 566.638 132.029C570.138 127.707 572.819 122.484 574.678 116.358C576.593 110.177 577.55 103.23 577.55 95.5179ZM650.744 91.0874C648.01 91.0874 645.466 91.6617 643.114 92.8103C640.762 93.9043 638.629 95.4632 636.714 97.487C634.855 99.5108 633.214 101.945 631.792 104.789C630.424 107.579 629.33 110.642 628.51 113.978C635.292 113.048 640.735 112.037 644.837 110.943C648.994 109.794 652.194 108.591 654.437 107.333C656.679 106.02 658.156 104.625 658.867 103.148C659.633 101.617 660.016 100.03 660.016 98.3895C660.016 97.569 659.824 96.7212 659.441 95.8461C659.113 94.9709 658.566 94.2051 657.8 93.5488C657.089 92.8377 656.132 92.2634 654.929 91.8258C653.78 91.3335 652.385 91.0874 650.744 91.0874ZM626.787 128.008C626.787 141.245 632.393 147.864 643.606 147.864C646.013 147.864 648.146 147.645 650.006 147.207C651.866 146.715 653.479 146.141 654.847 145.484C656.269 144.828 657.527 144.089 658.621 143.269C659.77 142.449 660.809 141.71 661.739 141.054C662.723 140.397 663.68 139.85 664.61 139.413C665.54 138.921 666.552 138.674 667.646 138.674C668.302 138.674 668.931 138.838 669.533 139.167C670.189 139.495 670.764 139.932 671.256 140.479L676.425 146.715C673.526 149.614 670.682 152.13 667.892 154.263C665.103 156.396 662.258 158.147 659.359 159.514C656.46 160.882 653.397 161.894 650.17 162.55C646.943 163.206 643.442 163.534 639.668 163.534C634.745 163.534 630.288 162.714 626.295 161.073C622.302 159.377 618.883 157.025 616.039 154.017C613.194 150.954 610.979 147.289 609.393 143.023C607.861 138.702 607.096 133.888 607.096 128.583C607.096 124.152 607.561 119.804 608.49 115.537C609.475 111.271 610.87 107.223 612.675 103.394C614.48 99.5655 616.695 96.0375 619.321 92.8103C621.946 89.5832 624.9 86.7936 628.182 84.4416C631.518 82.0896 635.156 80.2572 639.094 78.9445C643.087 77.6317 647.353 76.9754 651.893 76.9754C656.269 76.9754 660.098 77.6044 663.38 78.8624C666.716 80.1205 669.478 81.7614 671.666 83.7852C673.909 85.7543 675.577 87.9696 676.671 90.431C677.765 92.8924 678.312 95.2991 678.312 97.6511C678.312 101.425 677.546 104.871 676.015 107.989C674.538 111.107 671.858 113.896 667.974 116.358C664.145 118.819 658.894 120.952 652.221 122.757C645.548 124.508 637.07 125.902 626.787 126.942V128.008ZM742.933 93.959C742.331 94.8342 741.757 95.4632 741.21 95.8461C740.663 96.1743 739.952 96.3383 739.077 96.3383C738.092 96.3383 737.107 96.0649 736.123 95.5179C735.138 94.9709 733.99 94.3692 732.677 93.7129C731.419 93.0018 729.942 92.3728 728.246 91.8258C726.605 91.2788 724.636 91.0053 722.339 91.0053C718.018 91.0053 714.709 91.9899 712.411 93.959C710.114 95.8734 708.965 98.2801 708.965 101.179C708.965 103.422 709.759 105.227 711.345 106.594C712.986 107.962 715.037 109.165 717.498 110.204C719.96 111.243 722.585 112.31 725.375 113.404C728.219 114.443 730.872 115.783 733.333 117.424C735.795 119.011 737.818 121.089 739.405 123.66C741.046 126.176 741.866 129.43 741.866 133.423C741.866 137.471 741.046 141.327 739.405 144.992C737.818 148.657 735.521 151.884 732.513 154.673C729.504 157.408 725.867 159.596 721.601 161.237C717.389 162.823 712.63 163.617 707.325 163.617C704.699 163.617 702.128 163.343 699.612 162.796C697.096 162.304 694.744 161.593 692.556 160.663C690.423 159.733 688.454 158.639 686.649 157.381C684.844 156.123 683.312 154.755 682.054 153.279L687.059 145.566C687.661 144.636 688.372 143.925 689.192 143.433C690.013 142.941 691.025 142.695 692.228 142.695C693.377 142.695 694.416 143.05 695.346 143.761C696.276 144.472 697.342 145.265 698.546 146.141C699.804 146.961 701.308 147.727 703.058 148.438C704.863 149.149 707.16 149.505 709.95 149.505C712.193 149.505 714.162 149.204 715.857 148.602C717.608 148 719.085 147.18 720.288 146.141C721.491 145.101 722.394 143.898 722.995 142.531C723.597 141.163 723.898 139.714 723.898 138.182C723.898 136.322 723.433 134.791 722.503 133.587C721.573 132.329 720.315 131.263 718.729 130.388C717.197 129.458 715.447 128.665 713.478 128.008C711.509 127.297 709.485 126.559 707.407 125.793C705.383 125.027 703.386 124.152 701.417 123.168C699.503 122.183 697.752 120.952 696.166 119.475C694.635 117.944 693.404 116.112 692.474 113.978C691.544 111.79 691.079 109.138 691.079 106.02C691.079 102.3 691.79 98.6903 693.212 95.1897C694.635 91.6343 696.713 88.5166 699.448 85.8364C702.183 83.1015 705.547 80.9136 709.54 79.2727C713.587 77.6317 718.209 76.8113 723.406 76.8113C728.766 76.8113 733.525 77.7411 737.682 79.6009C741.839 81.4059 745.312 83.7305 748.102 86.5748L742.933 93.959ZM784.165 78.124L774.073 162.304H754.136L764.228 78.124H784.165ZM789.334 53.5921C789.334 55.3424 788.951 56.9833 788.185 58.5149C787.474 60.0464 786.517 61.3865 785.314 62.5352C784.11 63.6838 782.743 64.6137 781.211 65.3248C779.68 65.9811 778.093 66.3093 776.453 66.3093C774.866 66.3093 773.335 65.9811 771.858 65.3248C770.381 64.6137 769.068 63.6838 767.92 62.5352C766.771 61.3865 765.841 60.0464 765.13 58.5149C764.474 56.9833 764.146 55.3424 764.146 53.5921C764.146 51.8418 764.501 50.1735 765.212 48.5873C765.923 47.001 766.853 45.6336 768.002 44.4849C769.15 43.2816 770.463 42.3517 771.94 41.6953C773.472 40.9843 775.03 40.6287 776.617 40.6287C778.258 40.6287 779.844 40.9843 781.375 41.6953C782.907 42.3517 784.247 43.2542 785.396 44.4029C786.599 45.5515 787.556 46.919 788.267 48.5052C788.978 50.0914 789.334 51.7871 789.334 53.5921ZM820.449 177.811C823.512 177.811 826.301 177.428 828.817 176.662C831.334 175.896 833.494 174.83 835.299 173.462C837.104 172.095 838.499 170.481 839.484 168.621C840.468 166.762 840.96 164.765 840.96 162.632C840.96 161.866 840.906 161.128 840.796 160.417C840.742 159.651 840.66 158.94 840.55 158.283C834.096 157.19 828.571 156.725 823.977 156.889C819.382 157.053 815.635 157.627 812.736 158.612C809.837 159.596 807.704 160.909 806.337 162.55C804.969 164.191 804.286 165.941 804.286 167.801C804.286 171.083 805.598 173.571 808.224 175.267C810.904 176.963 814.979 177.811 820.449 177.811ZM827.751 122.839C830.212 122.839 832.373 122.265 834.233 121.116C836.092 119.968 837.651 118.464 838.909 116.604C840.222 114.744 841.207 112.666 841.863 110.368C842.519 108.016 842.875 105.637 842.929 103.23C842.929 99.1279 841.945 95.9828 839.976 93.7949C838.061 91.607 835.272 90.513 831.607 90.513C829.146 90.513 826.985 91.06 825.125 92.154C823.266 93.1932 821.707 94.6154 820.449 96.4204C819.191 98.1707 818.233 100.195 817.577 102.492C816.975 104.789 816.675 107.168 816.675 109.63C816.675 113.842 817.632 117.096 819.546 119.393C821.461 121.691 824.196 122.839 827.751 122.839ZM874.107 81.1597L873.205 87.7235C872.822 90.3489 871.482 92.0993 869.184 92.9744L860.57 95.1897C860.843 96.2836 861.034 97.4596 861.144 98.7177C861.308 99.921 861.39 101.179 861.39 102.492C861.39 105.008 861.116 107.278 860.57 109.302C860.023 111.271 859.339 113.103 858.518 114.799C857.753 116.494 856.905 118.108 855.975 119.64C855.045 121.116 854.17 122.648 853.349 124.234C852.584 125.766 851.927 127.407 851.38 129.157C850.833 130.853 850.56 132.74 850.56 134.818C850.56 137.061 851.025 139.139 851.955 141.054C852.884 142.913 853.896 144.828 854.99 146.797C856.084 148.766 857.096 150.872 858.026 153.115C858.956 155.357 859.421 157.955 859.421 160.909C859.366 165.066 858.409 169.004 856.549 172.724C854.69 176.498 852.009 179.78 848.509 182.569C845.063 185.414 840.824 187.656 835.791 189.297C830.759 190.938 825.071 191.758 818.726 191.758C813.584 191.758 808.935 191.212 804.778 190.118C800.621 189.078 797.093 187.601 794.194 185.687C791.295 183.773 789.052 181.503 787.466 178.877C785.88 176.306 785.087 173.462 785.087 170.344C785.087 166.515 785.907 163.179 787.548 160.335C789.189 157.49 791.377 155.111 794.112 153.197C796.847 151.227 799.992 149.669 803.547 148.52C807.103 147.371 810.795 146.551 814.623 146.059C818.452 145.566 822.281 145.375 826.11 145.484C829.939 145.594 833.494 145.922 836.776 146.469C836.284 144.828 836.038 143.05 836.038 141.136C836.038 137.963 836.913 134.463 838.663 130.634C836.585 132.056 834.205 133.15 831.525 133.916C828.9 134.681 825.727 135.064 822.008 135.064C818.835 135.064 815.799 134.545 812.9 133.505C810.056 132.466 807.54 130.88 805.352 128.747C803.164 126.614 801.414 123.961 800.101 120.788C798.843 117.561 798.214 113.814 798.214 109.548C798.214 105.446 798.98 101.453 800.511 97.569C802.043 93.6308 804.313 90.1302 807.321 87.0671C810.33 83.9493 814.049 81.4606 818.48 79.6009C822.91 77.7411 828.052 76.8113 833.904 76.8113C837.022 76.8113 839.976 77.1668 842.765 77.8779C845.61 78.5889 848.208 79.6829 850.56 81.1597H874.107ZM902.73 95.5179C906.996 89.2276 911.728 84.551 916.924 81.4879C922.12 78.3701 927.481 76.8113 933.005 76.8113C936.506 76.8113 939.651 77.5223 942.44 78.9445C945.23 80.3666 947.527 82.4451 949.332 85.18C951.137 87.8602 952.395 91.1968 953.106 95.1897C953.872 99.1279 953.927 103.64 953.271 108.727L946.953 162.304H926.687L933.005 108.727C933.716 103.258 933.443 99.3467 932.185 96.9947C930.927 94.588 928.629 93.3847 925.293 93.3847C923.05 93.3847 920.753 94.041 918.401 95.3538C916.049 96.6118 913.779 98.4442 911.591 100.851C909.403 103.203 907.379 106.047 905.519 109.384C903.714 112.666 902.238 116.358 901.089 120.46L896.412 162.304H876.147L886.239 78.042H896.494C898.628 78.042 900.268 78.5616 901.417 79.6009C902.62 80.6401 903.222 82.3084 903.222 84.6057L902.73 95.5179Z" fill="#2F2E7D"/>
</svg>
